<svg width="225" height="122" viewBox="0 0 225 122" fill="none" xmlns="http://www.w3.org/2000/svg">
<g clip-path="url(#clip0_14_4606)" filter="url(#filter0_d_14_4606)">
<mask id="mask0_14_4606" style="mask-type:luminance" maskUnits="userSpaceOnUse" x="82" y="0" width="61" height="62">
<path d="M82.1617 0.810913H142.951V61.6129H82.1617V0.810913Z" fill="white"/>
</mask>
<g mask="url(#mask0_14_4606)">
<path d="M127.283 54.9533L118.63 44.3524C118.592 44.3054 118.554 44.2552 118.52 44.2208L113.547 38.1286L117.764 32.9615L132.388 50.8804C130.858 52.423 129.143 53.7869 127.283 54.9533ZM107.991 58.7816L112.017 53.8465L116.15 58.9165C114.971 59.0732 113.767 59.1579 112.538 59.1579C110.995 59.1579 109.474 59.0231 107.991 58.7816ZM105.329 58.211C103.166 57.6278 101.1 56.8 99.1808 55.7434L111.992 40.0507L116.074 45.0454L105.329 58.211ZM125.133 56.1573C123.173 57.1387 121.085 57.9069 118.909 58.4179L113.607 51.9119L117.645 46.9674L125.133 56.1573ZM92.6998 50.8678L112.55 26.5558L116.209 31.0301L97.0769 54.4673C95.4966 53.4201 94.0387 52.2067 92.6998 50.8678ZM112.55 3.244C127.563 3.244 139.841 15.1304 140.471 29.986H135.73C135.062 17.9742 125.082 8.33591 112.952 8.2638C112.904 8.2638 112.854 8.2638 112.817 8.2638C106.778 8.2638 101.065 10.6342 96.7132 14.936C92.6027 19.0089 90.2072 24.3077 89.8937 29.986H84.6293C85.2626 15.1304 97.5378 3.244 112.55 3.244ZM135.621 46.9674C135.122 47.6823 134.602 48.3877 134.04 49.0556L132.341 46.9674H135.621ZM139.098 39.966C138.577 41.5557 137.919 43.0763 137.129 44.5343H130.372L126.638 39.966H139.098ZM134.551 32.4159H140.471C140.399 34.1655 140.158 35.8805 139.766 37.5329H124.647L120.477 32.4159H134.551ZM106.618 29.986H99.604C100.554 23.6524 105.963 18.7894 112.428 18.6922C112.491 18.6922 112.563 18.6922 112.622 18.6922C119.103 18.6922 124.694 23.6148 125.653 29.986H118.47L113.475 23.8719C113.014 23.2981 112.052 23.2981 111.591 23.8719L106.618 29.986ZM128.111 29.986C127.114 22.2039 120.282 16.165 112.393 16.2622C104.602 16.3845 98.1335 22.3261 97.1615 29.986H92.3361C92.6528 24.963 94.7786 20.2724 98.4251 16.6761C102.316 12.8227 107.421 10.6937 112.817 10.6937C112.854 10.6937 112.904 10.6937 112.939 10.6937C123.734 10.7565 132.633 19.3005 133.3 29.986H128.111ZM100.444 37.5455C100.394 37.5329 100.347 37.5329 100.297 37.5329H85.3222C84.9334 35.8805 84.7014 34.1655 84.6167 32.4159H104.624L100.444 37.5455ZM94.7441 44.5343H87.9842C87.1941 43.0889 86.5388 41.5557 86.0151 39.966H98.4753L94.7441 44.5343ZM89.4798 46.9674H92.7626L91.06 49.0556C90.5019 48.3752 89.9658 47.6823 89.4798 46.9674ZM138.794 46.5033C138.869 46.4061 138.941 46.2964 138.988 46.1773C140.23 44.0013 141.202 41.6529 141.882 39.1853C141.907 39.1132 141.929 39.041 141.942 38.9689C142.6 36.4888 142.951 33.8864 142.951 31.1994C142.939 14.4374 129.312 0.810913 112.55 0.810913C95.7882 0.810913 82.1617 14.4374 82.1617 31.1994C82.1617 33.8864 82.5129 36.4763 83.1713 38.9564C83.1839 39.0536 83.2089 39.1382 83.2434 39.2229C83.9113 41.6779 84.8833 44.0107 86.1249 46.1773C86.1719 46.2964 86.2346 46.4061 86.3193 46.5033C87.401 48.3532 88.6646 50.0777 90.1006 51.658C90.1602 51.7426 90.2323 51.8273 90.3169 51.89C90.3295 51.89 90.3295 51.9025 90.342 51.9025C92.1794 53.8716 94.2582 55.5835 96.5407 57.0195C96.5533 57.0321 96.5533 57.0321 96.5658 57.0446C96.5909 57.0666 96.6285 57.0791 96.663 57.1042C99.325 58.744 102.257 59.9856 105.367 60.7381C105.392 60.7507 105.414 60.7507 105.452 60.7632C107.737 61.3088 110.12 61.6129 112.563 61.6129C117.996 61.6129 123.101 60.1675 127.525 57.6623C127.622 57.6278 127.71 57.5776 127.795 57.5181C127.795 57.5181 127.795 57.5055 127.807 57.5055C130.394 55.9974 132.752 54.113 134.783 51.937C134.796 51.9245 134.796 51.9245 134.808 51.9245C134.893 51.8524 134.965 51.7802 135.025 51.6956C136.448 50.0777 137.712 48.3532 138.794 46.5033Z" fill="#D8AE5E"/>
</g>
<path d="M5.48509 99.5356H219.797" stroke="#090909" stroke-width="2.00131" stroke-linecap="round"/>
<path d="M27.1127 90.9338H27.6896C28.1317 90.9338 28.4829 90.7958 28.7431 90.5199C29.0002 90.244 29.1319 89.8552 29.1319 89.3535V77.2132C29.1319 76.9216 29.0347 76.6802 28.8434 76.4858C28.649 76.2945 28.4108 76.1973 28.1286 76.1973H27.1127V75.4824H32.029L37.5223 87.0333L42.7145 75.4824H47.4804V76.1973H45.6117V90.9338H47.4804V91.6612H40.9838V90.9338H41.9997C42.2818 90.9338 42.5201 90.8397 42.7145 90.6453C42.9058 90.454 43.003 90.2157 43.003 89.9304V76.7742L36.9328 90.0684H36.2179L29.8593 76.7742V90.9338H31.8785V91.6612H27.1127V90.9338Z" fill="#090909"/>
<path d="M49.2177 90.9338H50.2335C50.5157 90.9338 50.754 90.8397 50.9484 90.6453C51.1397 90.454 51.2369 90.2157 51.2369 89.9304V77.2132C51.2369 76.9216 51.1397 76.6802 50.9484 76.4858C50.754 76.2945 50.5157 76.1973 50.2335 76.1973H49.2177V75.4824H55.7268V76.1973H53.8455V90.9338H55.7268V91.6612H49.2177V90.9338Z" fill="#090909"/>
<path d="M66.2698 92.1001C65.0721 92.1001 63.9653 91.8869 62.9463 91.4605C61.9242 91.0341 61.04 90.4415 60.2875 89.6796C59.535 88.9208 58.9455 88.0209 58.5191 86.9831C58.099 85.939 57.892 84.8009 57.892 83.5718C57.892 82.3364 58.099 81.1983 58.5191 80.1604C58.9455 79.1258 59.535 78.2259 60.2875 77.464C61.04 76.7052 61.9242 76.1095 62.9463 75.6831C63.9653 75.2567 65.0721 75.0434 66.2698 75.0434C67.4644 75.0434 68.5712 75.2567 69.5934 75.6831C70.6124 76.1095 71.4997 76.7052 72.2522 77.464C73.0047 78.2259 73.5879 79.1258 74.0081 80.1604C74.4345 81.1983 74.6477 82.3364 74.6477 83.5718C74.6477 84.8009 74.4345 85.939 74.0081 86.9831C73.5879 88.0209 73.0047 88.9208 72.2522 89.6796C71.4997 90.4415 70.6124 91.0341 69.5934 91.4605C68.5712 91.8869 67.4644 92.1001 66.2698 92.1001ZM66.2698 91.5107C66.9785 91.5107 67.6776 91.3445 68.3643 91.009C69.0478 90.6766 69.6498 90.175 70.1703 89.504C70.6876 88.8267 71.1047 87.999 71.4245 87.0207C71.7411 86.0362 71.9011 84.8855 71.9011 83.5718C71.9011 82.2863 71.7411 81.145 71.4245 80.1479C71.1047 79.154 70.6876 78.3231 70.1703 77.6521C69.6498 76.9749 69.0478 76.4701 68.3643 76.1346C67.6776 75.7928 66.9785 75.6204 66.2698 75.6204C65.533 75.6204 64.8276 75.7928 64.1503 76.1346C63.4793 76.4701 62.8867 76.9749 62.3694 77.6521C61.8489 78.3231 61.4319 79.154 61.1152 80.1479C60.7954 81.145 60.6386 82.2863 60.6386 83.5718C60.6386 84.8855 60.7954 86.0362 61.1152 87.0207C61.4319 87.999 61.8489 88.8267 62.3694 89.504C62.8867 90.175 63.4793 90.6766 64.1503 91.009C64.8276 91.3445 65.533 91.5107 66.2698 91.5107ZM64.3886 73.3127L69.1544 69.1238L70.5967 69.9892L64.8276 73.4632L64.3886 73.3127Z" fill="#090909"/>
<path d="M76.8134 90.9338H77.8293C78.1115 90.9338 78.3498 90.8397 78.5442 90.6453C78.7354 90.454 78.8326 90.2157 78.8326 89.9304V77.2132C78.8326 76.9216 78.7354 76.6802 78.5442 76.4858C78.3498 76.2945 78.1115 76.1973 77.8293 76.1973H76.8134V75.4824H84.3259C85.58 75.4824 86.7213 75.68 87.7498 76.0719C88.7782 76.4669 89.6592 77.0219 90.396 77.7399C91.1297 78.4517 91.7004 79.3045 92.1017 80.2984C92.503 81.2861 92.7037 82.3772 92.7037 83.5718C92.7037 84.7695 92.5062 85.8638 92.1143 86.8577C91.7192 87.8454 91.1548 88.6982 90.4211 89.4162C89.6937 90.128 88.8095 90.6798 87.7748 91.0717C86.7464 91.4668 85.5957 91.6612 84.3259 91.6612H76.8134V90.9338ZM84.1879 90.9338C84.9718 90.9338 85.718 90.777 86.4203 90.4572C87.1227 90.1405 87.7309 89.6733 88.2514 89.0525C88.7782 88.4254 89.192 87.6572 89.493 86.7448C89.8003 85.8262 89.9571 84.7695 89.9571 83.5718C89.9571 82.3772 89.8003 81.3237 89.493 80.4113C89.192 79.4926 88.7782 78.7182 88.2514 78.0911C87.7309 77.464 87.1227 76.9937 86.4203 76.6739C85.718 76.3572 84.9718 76.1973 84.1879 76.1973H81.4413V90.9338H84.1879Z" fill="#090909"/>
<path d="M103.254 90.9338H103.831C104.273 90.9338 104.624 90.7958 104.884 90.5199C105.141 90.244 105.273 89.8552 105.273 89.3535V77.2132C105.273 76.9216 105.176 76.6802 104.985 76.4858C104.79 76.2945 104.552 76.1973 104.27 76.1973H103.254V75.4824H108.17L113.663 87.0333L118.856 75.4824H123.621V76.1973H121.753V90.9338H123.621V91.6612H117.125V90.9338H118.141C118.423 90.9338 118.661 90.8397 118.856 90.6453C119.047 90.454 119.144 90.2157 119.144 89.9304V76.7742L113.074 90.0684H112.359L106 76.7742V90.9338H108.02V91.6612H103.254V90.9338Z" fill="#090909"/>
<path d="M124.054 90.9337H124.644C125.221 90.9337 125.654 90.8083 125.948 90.5575C126.249 90.3067 126.466 90.0025 126.6 89.642L132.006 75.0435H132.733L138.653 89.9304C138.769 90.2157 138.923 90.454 139.117 90.6453C139.308 90.8397 139.587 90.9337 139.957 90.9337H141.111V91.6612H134.753V90.9337H136.345L134.602 86.6069H128.419L126.801 90.9337H128.682V91.6612H124.054V90.9337ZM134.401 86.03L131.429 78.5175L128.657 86.03H134.401Z" fill="#090909"/>
<path d="M141.541 90.9338H142.556C142.839 90.9338 143.077 90.8397 143.271 90.6453C143.463 90.454 143.56 90.2157 143.56 89.9304V77.2132C143.56 76.9216 143.463 76.6802 143.271 76.4858C143.077 76.2945 142.839 76.1973 142.556 76.1973H141.541V75.4824H148.05V76.1973H146.168V90.9338H149.492C150.778 90.9338 151.718 90.7017 152.314 90.2314C152.916 89.7642 153.32 89.087 153.53 88.1997L153.819 87.0333H154.396V91.6612H141.541V90.9338Z" fill="#090909"/>
<path d="M156.422 90.9338H157.438C157.72 90.9338 157.958 90.8397 158.153 90.6453C158.344 90.454 158.441 90.2157 158.441 89.9304V77.2132C158.441 76.9216 158.344 76.6802 158.153 76.4858C157.958 76.2945 157.72 76.1973 157.438 76.1973H156.422V75.4824H162.931V76.1973H161.05V90.9338H162.931V91.6612H156.422V90.9338Z" fill="#090909"/>
<path d="M167.266 78.0785V90.9338H169.135V91.6612H164.369V90.9338H165.096C166.056 90.9338 166.539 90.4258 166.539 89.4037V77.2132C166.539 76.9216 166.441 76.6802 166.25 76.4858C166.056 76.2945 165.814 76.1973 165.523 76.1973H164.369V75.4824H168.621L178.817 87.6102V76.1973H176.798V75.4824H181.714V76.1973H180.987C180.541 76.1973 180.19 76.3415 179.933 76.6237C179.673 76.8996 179.544 77.2884 179.544 77.7901V91.9496H178.967L167.266 78.0785Z" fill="#090909"/>
<path d="M181.847 90.9337H182.436C183.013 90.9337 183.446 90.8083 183.74 90.5575C184.041 90.3067 184.258 90.0025 184.393 89.642L189.798 75.0435H190.525L196.445 89.9304C196.561 90.2157 196.715 90.454 196.909 90.6453C197.1 90.8397 197.379 90.9337 197.749 90.9337H198.903V91.6612H192.545V90.9337H194.137L192.394 86.6069H186.211L184.593 90.9337H186.474V91.6612H181.847V90.9337ZM192.193 86.03L189.221 78.5175L186.449 86.03H192.193Z" fill="#090909"/>
<path d="M80.5818 113.442C81.7638 113.442 82.9867 112.138 82.9867 110.464C82.9867 108.793 81.7638 107.488 80.5818 107.488C79.3966 107.488 78.1738 108.793 78.1738 110.464C78.1738 112.138 79.3966 113.442 80.5818 113.442ZM80.5818 113.157C79.4374 113.157 79.152 111.853 79.152 110.464C79.152 109.078 79.4374 107.774 80.5818 107.774C81.7231 107.774 82.0084 109.078 82.0084 110.464C82.0084 111.853 81.7231 113.157 80.5818 113.157Z" fill="#090909"/>
<path d="M86.8208 113.442C87.8869 113.442 88.4983 112.75 88.4983 111.828C88.4983 111.094 88.1158 110.498 87.1375 110.097L86.639 109.893C85.7015 109.511 85.2688 109.307 85.2688 108.67C85.2688 108.172 85.6858 107.774 86.338 107.774C87.1689 107.774 87.5859 108.354 87.8649 109.031C87.9935 109.357 88.0092 109.567 88.1314 109.567C88.213 109.567 88.2474 109.501 88.2474 109.429C88.2224 108.67 88.2474 108.278 88.2474 107.683C88.2474 107.57 88.2318 107.529 88.1408 107.529C88.075 107.529 88.0499 107.56 88.0092 107.626C87.9214 107.764 87.8053 108.002 87.7019 108.002C87.5357 108.002 87.2692 107.488 86.3693 107.488C85.4256 107.488 84.7891 108.15 84.7797 108.949C84.7734 109.862 85.3911 110.382 86.2 110.718L87.0466 111.069C87.6831 111.329 87.9684 111.63 87.9684 112.144C87.9684 112.756 87.5451 113.157 86.8616 113.157C85.8645 113.157 85.3597 112.367 85.1058 111.216C85.065 111.028 85.0493 110.947 84.9364 110.947C84.8612 110.947 84.8204 111.003 84.8204 111.085C84.8455 111.828 84.8361 112.414 84.8204 113.248C84.8204 113.361 84.8455 113.402 84.927 113.402C85.1058 113.402 85.1308 112.797 85.319 112.797C85.4068 112.797 85.4977 112.922 85.6764 113.06C85.9304 113.239 86.2659 113.442 86.8208 113.442Z" fill="#090909"/>
<path d="M89.9178 113.361C90.1216 113.361 90.3599 113.32 90.8146 113.32H90.9212C91.2567 113.32 91.542 113.361 91.6956 113.361C91.7928 113.361 91.8587 113.311 91.8587 113.182C91.8587 113.051 91.7928 113.003 91.6956 113.003C91.5733 113.003 91.4605 113.035 91.3288 113.035C91.0999 113.035 91.0121 112.944 91.0121 112.815C91.0121 112.765 91.0278 112.709 91.0529 112.634L91.426 111.549C91.4855 111.395 91.589 111.323 91.7521 111.323H92.8777C93.0407 111.323 93.1473 111.395 93.2038 111.549L93.58 112.627C93.6709 112.897 93.533 113.035 93.3104 113.035C93.1818 113.035 93.0407 113.003 92.9184 113.003C92.8212 113.003 92.7554 113.051 92.7554 113.182C92.7554 113.311 92.8212 113.361 92.9184 113.361C93.1222 113.361 93.2477 113.32 93.743 113.32H94.3482C94.8028 113.32 94.9596 113.361 95.1634 113.361C95.2606 113.361 95.3264 113.311 95.3264 113.182C95.3264 113.051 95.2606 113.003 95.1634 113.003C95.0411 113.003 94.9659 113.035 94.8624 113.035C94.6492 113.035 94.5363 112.887 94.4705 112.709L93.141 108.849C93.0094 108.457 92.8777 108.075 92.7648 107.683C92.724 107.545 92.6519 107.488 92.561 107.488C92.4638 107.488 92.4074 107.57 92.3572 107.723C92.2255 108.15 92.1377 108.41 91.9496 108.956L90.7174 112.602C90.6202 112.903 90.4477 113.035 90.2533 113.035C90.0715 113.035 90.0401 113.003 89.9178 113.003C89.8206 113.003 89.7548 113.051 89.7548 113.182C89.7548 113.311 89.8206 113.361 89.9178 113.361ZM91.8022 111.038C91.6392 111.038 91.6141 110.997 91.6643 110.84L92.1847 109.282C92.2098 109.21 92.2443 109.159 92.2914 109.159C92.3572 109.159 92.398 109.21 92.423 109.291L92.9592 110.84C93.0188 110.997 92.9843 111.038 92.8212 111.038H91.8022Z" fill="#090909"/>
<path d="M96.6297 113.361C96.8335 113.361 96.9558 113.32 97.5264 113.32H98.1378C98.4639 113.32 98.7273 113.361 99.0941 113.361C100.367 113.361 101.565 112.138 101.565 110.464C101.565 108.793 100.358 107.57 99.0941 107.57C98.7273 107.57 98.4639 107.611 98.1378 107.611H97.5264C96.9558 107.611 96.8335 107.57 96.6297 107.57C96.5325 107.57 96.4666 107.617 96.4666 107.749C96.4666 107.88 96.5325 107.927 96.6297 107.927C96.752 107.927 96.868 107.896 97.1031 107.896C97.3163 107.896 97.4449 108.028 97.4449 108.231V112.699C97.4449 112.903 97.3163 113.035 97.1031 113.035C96.868 113.035 96.752 113.004 96.6297 113.004C96.5325 113.004 96.4666 113.051 96.4666 113.182C96.4666 113.311 96.5325 113.361 96.6297 113.361ZM98.768 113.076C98.442 113.076 98.2601 112.897 98.2601 112.571V108.36C98.2601 108.034 98.442 107.855 98.768 107.855H99.0784C100.22 107.855 100.587 109.078 100.587 110.464C100.587 111.853 100.22 113.076 99.0784 113.076H98.768Z" fill="#090909"/>
<path d="M102.95 113.361C103.154 113.361 103.392 113.32 103.847 113.32H103.954C104.289 113.32 104.574 113.361 104.728 113.361C104.825 113.361 104.891 113.311 104.891 113.182C104.891 113.051 104.825 113.003 104.728 113.003C104.606 113.003 104.493 113.035 104.361 113.035C104.132 113.035 104.045 112.944 104.045 112.815C104.045 112.765 104.06 112.709 104.085 112.634L104.458 111.549C104.518 111.395 104.621 111.323 104.785 111.323H105.91C106.073 111.323 106.18 111.395 106.236 111.549L106.612 112.627C106.703 112.897 106.565 113.035 106.343 113.035C106.214 113.035 106.073 113.003 105.951 113.003C105.854 113.003 105.788 113.051 105.788 113.182C105.788 113.311 105.854 113.361 105.951 113.361C106.155 113.361 106.28 113.32 106.776 113.32H107.381C107.835 113.32 107.992 113.361 108.196 113.361C108.293 113.361 108.359 113.311 108.359 113.182C108.359 113.051 108.293 113.003 108.196 113.003C108.074 113.003 107.998 113.035 107.895 113.035C107.682 113.035 107.569 112.887 107.503 112.709L106.174 108.849C106.042 108.457 105.91 108.075 105.797 107.683C105.757 107.545 105.684 107.488 105.593 107.488C105.496 107.488 105.44 107.57 105.39 107.723C105.258 108.15 105.17 108.41 104.982 108.956L103.75 112.602C103.653 112.903 103.48 113.035 103.286 113.035C103.104 113.035 103.073 113.003 102.95 113.003C102.853 113.003 102.787 113.051 102.787 113.182C102.787 113.311 102.853 113.361 102.95 113.361ZM104.835 111.038C104.672 111.038 104.647 110.997 104.697 110.84L105.217 109.282C105.242 109.21 105.277 109.159 105.324 109.159C105.39 109.159 105.43 109.21 105.456 109.291L105.992 110.84C106.051 110.997 106.017 111.038 105.854 111.038H104.835Z" fill="#090909"/>
<path d="M113.21 113.361C113.414 113.361 113.536 113.32 114.107 113.32H114.759C115.333 113.32 115.455 113.361 115.659 113.361C115.756 113.361 115.822 113.311 115.822 113.182C115.822 113.051 115.756 113.004 115.659 113.004C115.536 113.004 115.42 113.035 115.185 113.035C114.972 113.035 114.84 112.903 114.84 112.699V108.231C114.84 108.028 114.972 107.896 115.185 107.896C115.42 107.896 115.536 107.927 115.659 107.927C115.756 107.927 115.822 107.88 115.822 107.749C115.822 107.617 115.756 107.57 115.659 107.57C115.455 107.57 115.333 107.611 114.759 107.611H114.107C113.536 107.611 113.414 107.57 113.21 107.57C113.113 107.57 113.047 107.617 113.047 107.749C113.047 107.88 113.113 107.927 113.21 107.927C113.332 107.927 113.448 107.896 113.683 107.896C113.897 107.896 114.025 108.028 114.025 108.231V112.699C114.025 112.903 113.897 113.035 113.683 113.035C113.448 113.035 113.332 113.004 113.21 113.004C113.113 113.004 113.047 113.051 113.047 113.182C113.047 113.311 113.113 113.361 113.21 113.361Z" fill="#090909"/>
<path d="M119.573 113.442C120.64 113.442 121.251 112.75 121.251 111.828C121.251 111.094 120.868 110.498 119.89 110.097L119.392 109.893C118.454 109.511 118.021 109.307 118.021 108.67C118.021 108.172 118.438 107.774 119.091 107.774C119.922 107.774 120.339 108.354 120.618 109.031C120.746 109.357 120.762 109.567 120.884 109.567C120.966 109.567 121 109.501 121 109.429C120.975 108.67 121 108.278 121 107.683C121 107.57 120.984 107.529 120.894 107.529C120.828 107.529 120.803 107.56 120.762 107.626C120.674 107.764 120.558 108.002 120.455 108.002C120.288 108.002 120.022 107.488 119.122 107.488C118.178 107.488 117.542 108.15 117.532 108.949C117.526 109.862 118.144 110.382 118.953 110.718L119.799 111.069C120.436 111.329 120.721 111.63 120.721 112.144C120.721 112.756 120.298 113.157 119.614 113.157C118.617 113.157 118.112 112.367 117.858 111.216C117.818 111.028 117.802 110.947 117.689 110.947C117.614 110.947 117.573 111.003 117.573 111.085C117.598 111.828 117.589 112.414 117.573 113.248C117.573 113.361 117.598 113.402 117.68 113.402C117.858 113.402 117.884 112.797 118.072 112.797C118.159 112.797 118.25 112.922 118.429 113.06C118.683 113.239 119.019 113.442 119.573 113.442Z" fill="#090909"/>
<path d="M123.893 113.361C124.097 113.361 124.219 113.32 124.79 113.32H125.445C126.016 113.32 126.138 113.361 126.342 113.361C126.439 113.361 126.505 113.311 126.505 113.182C126.505 113.051 126.439 113.004 126.342 113.004C126.22 113.004 126.104 113.035 125.869 113.035C125.655 113.035 125.527 112.903 125.527 112.699V108.14C125.527 107.977 125.608 107.896 125.771 107.896H126.138C126.903 107.896 127.091 108.727 127.361 109.617C127.386 109.699 127.392 109.771 127.499 109.771C127.581 109.771 127.606 109.699 127.606 109.649C127.59 109.031 127.574 108.517 127.581 107.855C127.581 107.626 127.474 107.57 127.295 107.57C126.985 107.57 126.383 107.611 126.016 107.611H124.219C123.853 107.611 123.251 107.57 122.94 107.57C122.761 107.57 122.655 107.626 122.655 107.855C122.661 108.517 122.645 109.031 122.63 109.649C122.63 109.699 122.655 109.771 122.736 109.771C122.843 109.771 122.849 109.699 122.874 109.617C123.144 108.727 123.332 107.896 124.097 107.896H124.464C124.627 107.896 124.709 107.977 124.709 108.14V112.699C124.709 112.903 124.58 113.035 124.367 113.035C124.132 113.035 124.016 113.004 123.893 113.004C123.796 113.004 123.73 113.051 123.73 113.182C123.73 113.311 123.796 113.361 123.893 113.361Z" fill="#090909"/>
<path d="M129.032 113.361C129.235 113.361 129.358 113.32 129.928 113.32H132.296C132.662 113.32 133.264 113.361 133.575 113.361C133.754 113.361 133.86 113.305 133.86 113.076C133.854 112.414 133.87 111.9 133.885 111.282C133.885 111.232 133.876 111.16 133.779 111.16C133.672 111.16 133.666 111.232 133.641 111.314C133.371 112.204 133.183 113.035 132.418 113.035H130.907C130.744 113.035 130.662 112.953 130.662 112.79V110.708C130.662 110.545 130.744 110.464 130.907 110.464H131.242C131.869 110.464 131.992 110.661 132.098 111.517C132.117 111.649 132.133 111.771 132.261 111.771C132.343 111.771 132.383 111.712 132.383 111.63C132.361 110.693 132.361 110 132.383 109.062C132.383 108.981 132.343 108.915 132.261 108.915C132.133 108.915 132.117 109.037 132.098 109.169C131.992 110.025 131.869 110.219 131.242 110.219H130.907C130.744 110.219 130.662 110.138 130.662 109.975V108.14C130.662 107.977 130.744 107.896 130.907 107.896H132.459C133.07 107.896 133.224 108.394 133.518 109.373C133.544 109.454 133.559 109.526 133.656 109.526C133.754 109.526 133.763 109.454 133.763 109.404C133.747 108.89 133.732 108.416 133.738 107.855C133.738 107.626 133.631 107.57 133.453 107.57C133.142 107.57 132.703 107.611 132.336 107.611H129.928C129.358 107.611 129.235 107.57 129.032 107.57C128.934 107.57 128.869 107.617 128.869 107.749C128.869 107.88 128.934 107.927 129.032 107.927C129.154 107.927 129.27 107.896 129.505 107.896C129.718 107.896 129.847 108.028 129.847 108.231V112.699C129.847 112.903 129.718 113.035 129.505 113.035C129.27 113.035 129.154 113.004 129.032 113.004C128.934 113.004 128.869 113.051 128.869 113.182C128.869 113.311 128.934 113.361 129.032 113.361Z" fill="#090909"/>
<path d="M135.76 113.361C135.964 113.361 136.086 113.32 136.657 113.32H138.453C139.758 113.32 140.41 112.571 140.41 111.752C140.41 110.978 139.764 110.458 139.112 110.32C139.112 110.32 139.09 110.31 139.09 110.295C139.09 110.279 139.112 110.269 139.112 110.269C139.66 110.091 140.206 109.746 140.206 109.037C140.206 107.977 139.137 107.611 138.086 107.611H136.657C136.086 107.611 135.964 107.57 135.76 107.57C135.663 107.57 135.597 107.617 135.597 107.749C135.597 107.88 135.663 107.927 135.76 107.927C135.882 107.927 135.998 107.896 136.233 107.896C136.447 107.896 136.575 108.028 136.575 108.231V112.699C136.575 112.903 136.447 113.035 136.233 113.035C135.998 113.035 135.882 113.004 135.76 113.004C135.663 113.004 135.597 113.051 135.597 113.182C135.597 113.311 135.663 113.361 135.76 113.361ZM137.594 110.178C137.431 110.178 137.39 110.138 137.39 109.975V108.15C137.39 107.993 137.491 107.896 137.644 107.896H138.174C138.877 107.896 139.309 108.263 139.309 109.037C139.309 109.812 138.877 110.178 138.174 110.178H137.594ZM137.644 113.035C137.491 113.035 137.39 112.938 137.39 112.781V110.627C137.39 110.464 137.431 110.423 137.594 110.423H138.249C138.942 110.423 139.472 110.834 139.472 111.771C139.472 112.709 138.942 113.035 138.249 113.035H137.644Z" fill="#090909"/>
<path d="M146.338 113.402C146.436 113.402 146.445 113.279 146.445 113.198V108.231C146.445 108.028 146.577 107.896 146.787 107.896C147.025 107.896 147.138 107.927 147.26 107.927C147.357 107.927 147.423 107.88 147.423 107.749C147.423 107.617 147.357 107.57 147.26 107.57C147.056 107.57 146.934 107.611 146.363 107.611H146.2C145.63 107.611 145.507 107.57 145.304 107.57C145.206 107.57 145.141 107.617 145.141 107.749C145.141 107.88 145.206 107.927 145.304 107.927C145.426 107.927 145.539 107.896 145.777 107.896C145.987 107.896 146.119 108.028 146.119 108.231V111.395C146.119 111.517 146.094 111.567 146.037 111.567C145.972 111.567 145.931 111.492 145.899 111.445L143.526 107.855C143.404 107.667 143.2 107.611 142.987 107.611H142.545C142.375 107.611 142.04 107.586 141.943 107.586C141.836 107.586 141.795 107.676 141.795 107.758C141.795 107.855 141.886 107.905 141.999 107.921C142.284 107.968 142.676 108.1 142.814 108.416C142.849 108.492 142.855 108.564 142.855 108.639V112.699C142.855 112.903 142.726 113.035 142.513 113.035C142.278 113.035 142.162 113.004 142.04 113.004C141.943 113.004 141.877 113.051 141.877 113.182C141.877 113.311 141.943 113.361 142.04 113.361C142.244 113.361 142.366 113.32 142.936 113.32H143.099C143.67 113.32 143.792 113.361 143.996 113.361C144.097 113.361 144.162 113.311 144.162 113.182C144.162 113.051 144.097 113.004 143.996 113.004C143.874 113.004 143.761 113.035 143.526 113.035C143.313 113.035 143.181 112.903 143.181 112.699V109.21C143.181 109.087 143.206 109.037 143.263 109.037C143.328 109.037 143.369 109.112 143.404 109.159L146.078 113.207C146.2 113.392 146.257 113.402 146.338 113.402Z" fill="#090909"/>
<path d="M148.564 113.361C148.768 113.361 149.006 113.32 149.461 113.32H149.568C149.903 113.32 150.188 113.361 150.342 113.361C150.439 113.361 150.505 113.311 150.505 113.182C150.505 113.051 150.439 113.003 150.342 113.003C150.22 113.003 150.107 113.035 149.975 113.035C149.746 113.035 149.658 112.944 149.658 112.815C149.658 112.765 149.674 112.709 149.699 112.634L150.072 111.549C150.132 111.395 150.235 111.323 150.398 111.323H151.524C151.687 111.323 151.794 111.395 151.85 111.549L152.226 112.627C152.317 112.897 152.179 113.035 151.957 113.035C151.828 113.035 151.687 113.003 151.565 113.003C151.468 113.003 151.402 113.051 151.402 113.182C151.402 113.311 151.468 113.361 151.565 113.361C151.769 113.361 151.894 113.32 152.389 113.32H152.995C153.449 113.32 153.606 113.361 153.81 113.361C153.907 113.361 153.973 113.311 153.973 113.182C153.973 113.051 153.907 113.003 153.81 113.003C153.687 113.003 153.612 113.035 153.509 113.035C153.296 113.035 153.183 112.887 153.117 112.709L151.787 108.849C151.656 108.457 151.524 108.075 151.411 107.683C151.37 107.545 151.298 107.488 151.207 107.488C151.11 107.488 151.054 107.57 151.004 107.723C150.872 108.15 150.784 108.41 150.596 108.956L149.364 112.602C149.267 112.903 149.094 113.035 148.9 113.035C148.718 113.035 148.686 113.003 148.564 113.003C148.467 113.003 148.401 113.051 148.401 113.182C148.401 113.311 148.467 113.361 148.564 113.361ZM150.449 111.038C150.286 111.038 150.26 110.997 150.311 110.84L150.831 109.282C150.856 109.21 150.891 109.159 150.938 109.159C151.004 109.159 151.044 109.21 151.069 109.291L151.606 110.84C151.665 110.997 151.631 111.038 151.468 111.038H150.449Z" fill="#090909"/>
</g>
<defs>
<filter id="filter0_d_14_4606" x="0" y="0" width="225" height="122" filterUnits="userSpaceOnUse" color-interpolation-filters="sRGB">
<feFlood flood-opacity="0" result="BackgroundImageFix"/>
<feColorMatrix in="SourceAlpha" type="matrix" values="0 0 0 0 0 0 0 0 0 0 0 0 0 0 0 0 0 0 127 0" result="hardAlpha"/>
<feOffset dy="4"/>
<feGaussianBlur stdDeviation="2"/>
<feComposite in2="hardAlpha" operator="out"/>
<feColorMatrix type="matrix" values="0 0 0 0 0 0 0 0 0 0 0 0 0 0 0 0 0 0 0.25 0"/>
<feBlend mode="normal" in2="BackgroundImageFix" result="effect1_dropShadow_14_4606"/>
<feBlend mode="normal" in="SourceGraphic" in2="effect1_dropShadow_14_4606" result="shape"/>
</filter>
<clipPath id="clip0_14_4606">
<rect width="217" height="114" fill="white" transform="translate(4)"/>
</clipPath>
</defs>
</svg>
